<svg width="176" height="24" viewBox="0 0 176 24" fill="none" xmlns="http://www.w3.org/2000/svg">
<path d="M68 0L70.6942 8.2918H79.4127L72.3593 13.4164L75.0534 21.7082L68 16.5836L60.9466 21.7082L63.6407 13.4164L56.5873 8.2918H65.3058L68 0Z" fill="#EBC154"/>
<path d="M96 0L98.6942 8.2918H107.413L100.359 13.4164L103.053 21.7082L96 16.5836L88.9466 21.7082L91.6407 13.4164L84.5873 8.2918H93.3058L96 0Z" fill="#EBC154"/>
<path d="M124 1.61804L126.219 8.4463L126.331 8.7918H126.694H133.874L128.065 13.0119L127.771 13.2254L127.884 13.5709L130.102 20.3992L124.294 16.1791L124 15.9656L123.706 16.1791L117.898 20.3992L120.116 13.5709L120.229 13.2254L119.935 13.0119L114.126 8.7918H121.306H121.669L121.781 8.4463L124 1.61804Z" stroke="#EBC154"/>
</svg>
