<svg width="56" height="56" viewBox="0 0 56 56" fill="none" xmlns="http://www.w3.org/2000/svg">
<path d="M28.0002 11.2C25.0799 11.2037 22.2803 12.3654 20.2153 14.4303C18.1504 16.4953 16.9887 19.2949 16.985 22.2152H22.585C22.585 19.2276 25.0154 16.8 28.0002 16.8C30.985 16.8 33.4154 19.2276 33.4154 22.2152C33.4154 23.8896 32.0686 25.1048 30.0106 26.768C29.3383 27.2946 28.6925 27.8544 28.0758 28.4452C25.2814 31.2368 25.2002 34.202 25.2002 34.5324V36.4H30.8002L30.7974 34.6276C30.8002 34.5828 30.8898 33.5468 32.0322 32.4072C32.4522 31.9872 32.9814 31.5672 33.5302 31.1248C35.7114 29.358 39.0126 26.6896 39.0126 22.2152C39.0103 19.2949 37.8495 16.4949 35.7848 14.4297C33.7202 12.3645 30.9204 11.2029 28.0002 11.2ZM25.2002 39.2H30.8002V44.7999H25.2002V39.2Z" fill="#EBC154"/>
<path d="M28 0C12.5608 0 0 12.5608 0 28C0 43.4392 12.5608 56 28 56C43.4392 56 56 43.4392 56 28C56 12.5608 43.4392 0 28 0ZM28 50.4C15.6492 50.4 5.6 40.3508 5.6 28C5.6 15.6492 15.6492 5.6 28 5.6C40.3508 5.6 50.4 15.6492 50.4 28C50.4 40.3508 40.3508 50.4 28 50.4Z" fill="#EBC154"/>
</svg>
