<svg width="56" height="56" viewBox="0 0 56 56" fill="none" xmlns="http://www.w3.org/2000/svg">
<path d="M28 0C12.6 0 0 12.6 0 28C0 43.4 12.6 56 28 56C43.4 56 56 43.4 56 28C56 12.6 43.4 0 28 0ZM28 6.22222C35.3153 6.22222 36.3439 15.3006 31.1712 20.4733L20.4733 31.1712C15.3006 36.3439 6.22222 35.3153 6.22222 28C6.22222 16.0222 16.0222 6.22222 28 6.22222ZM28 49.7778C20.6848 49.7778 19.6561 40.6994 24.8288 35.5268L35.5268 24.8288C40.6994 19.6561 49.7778 20.6848 49.7778 28C49.7778 39.9778 39.9778 49.7778 28 49.7778Z" fill="#EBC154"/>
</svg>
